OpenSim_Sub02_CSStiffKnee_LCS.mot
version=1
nRows=64
nColumns=11
inDegrees=no
endheader
time	Bot_Shank	2nd_Bot_Shank	2nd_Top_Shank	Top_Shank	Bot_Thigh	Med_Thigh	Top_Thigh	BNOx	BNOy	BNOZ
34.45000000	9149.53680648	9575.17026998	11231.50321438	11028.68747684	12629.51632961	13090.49071734	13160.01204749	139.19442937	-50.88414618	-84.95214639
34.46000000	9156.80136906	9575.34120025	11230.76197280	11047.42259061	12626.29148653	13087.10122497	13173.11566577	139.42633395	-51.78575522	-79.16833005
34.47000000	9161.87795387	9575.31212640	11230.32151963	11067.47231360	12625.01606820	13090.34099959	13187.25460227	139.78177073	-52.70988512	-72.81807218
34.48000000	9165.03546820	9575.11441900	11230.13907351	11088.23792071	12625.24138800	13099.15864492	13201.94400161	140.27610499	-53.66225419	-66.51461753
34.49000000	9166.54281933	9574.77944860	11230.17185311	11109.12068683	12626.51875933	13112.50276462	13216.69900838	140.92470203	-54.64858077	-60.87121086
34.50000000	9166.66891454	9574.33858577	11230.37707707	11129.52188688	12628.39949557	13129.32196241	13231.03476719	141.74292715	-55.67458319	-56.50109692
34.51000000	9165.68266113	9573.82320107	11230.71196405	11148.84279576	12630.43491012	13148.56484196	13244.46642266	142.74614564	-56.74597977	-54.01752047
34.52000000	9163.85296636	9573.26466506	11231.13373271	11166.48468836	12632.17631635	13169.18000697	13256.50911937	143.94972278	-57.86848885	-54.03372625
34.53000000	9161.44873754	9572.69434829	11231.59960169	11181.84883960	12633.17502766	13190.11606114	13266.67800195	145.36902387	-59.04782875	-57.16295903
34.54000000	9158.73888193	9572.14362134	11232.06678965	11194.33652437	12632.98235744	13210.32160814	13274.48821499	147.01941421	-60.28971779	-64.01846356
34.55000000	9155.99230684	9571.64385476	11232.49251524	11203.34901757	12631.14961907	13228.74525168	13279.45490311	148.91625909	-61.59987432	-75.21348459
34.56000000	9153.47791953	9571.22641911	11232.83399711	11208.28759412	12627.22812595	13244.33559545	13281.09321090	151.07492379	-62.98401665	-91.36126688
34.57000000	9151.46289396	9570.92232690	11233.04878025	11208.55689079	12620.77887081	13256.05030342	13278.92635466	153.51057454	-64.44755628	-113.05526348
34.58000000	9150.08029496	9570.73488768	11233.11965788	11203.82165396	12612.11174141	13263.54803744	13273.10205998	156.22297441	-65.97216490	-139.35763614
34.59000000	9149.23586312	9570.62045254	11233.07222071	11194.18753391	12602.80605457	13267.67569937	13264.82663907	159.18577715	-67.49927358	-166.73490155
34.60000000	9148.81331921	9570.53082396	11232.93620509	11179.80288915	12594.56409071	13269.39529030	13255.40894442	162.37010741	-68.96641546	-191.40214849
34.61000000	9148.69638398	9570.41780440	11232.74134731	11160.81607822	12589.08813026	13269.66881131	13246.15782854	165.74708982	-70.31112370	-209.57446573
34.62000000	9148.76877820	9570.23319631	11232.51738372	11137.37545964	12588.08045364	13269.45826348	13238.38214394	169.28784904	-71.47093144	-217.46694206
34.63000000	9148.91422263	9569.92880217	11232.29405062	11109.62939196	12593.24334129	13269.72564790	13233.39074311	172.96350971	-72.38337183	-211.29466625
34.64000000	9149.01643803	9569.45642443	11232.10108434	11077.72623369	12606.27907361	13271.43296566	13232.49247857	176.74519648	-72.98597802	-187.27272708
34.65000000	9148.96021317	9568.76959818	11231.96799772	11041.82761030	12628.86274417	13275.53197290	13236.98624760	180.60328121	-73.21708171	-141.68191954
34.66000000	9148.71296993	9567.95591153	11231.90701283	11003.12161466	12660.56598755	13282.18177173	13247.40070816	184.44989227	-73.07679931	-75.88675282
34.67000000	9148.38219893	9567.33018178	11231.90104266	10964.53627307	12697.39492936	13290.19786061	13262.95890916	188.09843127	-72.66997660	0.13101544
34.68000000	9148.08895865	9567.22923687	11231.93016120	10929.16815106	12735.01032118	13298.26558944	13282.75743128	191.35273665	-72.11160397	75.55491532
34.69000000	9147.95430755	9567.98990473	11231.97444242	10900.11381410	12769.07291456	13305.07030811	13305.89285521	194.01664681	-71.51667183	139.56847691
34.70000000	9148.09702974	9569.94152534	11232.01420150	10880.42074660	12795.30526928	13309.32020898	13331.46572939	195.89735287	-70.99873668	181.51554651
34.71000000	9148.54749506	9573.12234443	11232.03913142	10871.22840542	12811.83273858	13310.61148449	13358.73084895	196.93238093	-70.61561115	196.97226354
34.72000000	9149.22122002	9577.19246598	11232.05110717	10871.19765210	12819.90198948	13309.69387067	13387.14338087	197.22856691	-70.35269469	189.61073663
34.73000000	9150.02604528	9581.78672213	11232.05281788	10878.82369954	12820.96829166	13307.39419679	13416.17188334	196.90406202	-70.19054728	163.64414165
34.74000000	9150.86981150	9586.53994501	11232.04695270	10892.60176059	12816.48691477	13304.53929211	13445.28491453	196.07701742	-70.10972884	123.28565446
34.75000000	9151.66035936	9591.08696678	11232.03620077	10911.02704814	12807.91312850	13301.95598591	13473.95103264	194.86558432	-70.09079934	72.74845095
34.76000000	9152.30552951	9595.06261957	11232.02325123	10932.59477505	12796.70220250	13300.47110746	13501.63879584	193.38791389	-70.11431874	16.24570698
34.77000000	9152.71316262	9598.10173552	11232.01079321	10955.80015419	12784.30940645	13300.91148603	13527.81676231	191.76215732	-70.16084698	-42.00940157
34.78000000	9152.79109936	9599.83914676	11232.00151587	10979.13839845	12772.19001001	13304.10395089	13551.95349025	190.10646579	-70.21094401	-97.80369884
34.79000000	9152.44718040	9599.90968545	11231.99810833	11001.10472068	12761.79928286	13310.87533130	13573.51753782	188.53899049	-70.24516979	-146.92400894
34.80000000	9151.59260446	9597.95864668	11232.00319504	11020.20964441	12754.57116031	13322.03385544	13591.98806104	187.17620685	-70.24435843	-185.22059673
34.81000000	9150.26911518	9594.03807352	11232.01688502	11035.55889489	12751.11020511	13337.66463334	13607.25620602	186.06944484	-70.20000163	-211.00998493
34.82000000	9148.68803859	9588.72838898	11232.03601968	11047.03138542	12750.94359572	13356.91341898	13619.74830863	185.18540826	-70.11743576	-225.81245250
34.83000000	9147.07203422	9582.64532861	11232.05722208	11054.55770276	12753.52650717	13378.86318764	13629.92647239	184.48514515	-70.00292241	-231.36239083
34.84000000	9145.64376159	9576.40462796	11232.07711525	11058.06843368	12758.31411449	13402.59691457	13638.25280077	183.92970358	-69.86272318	-229.39419129
34.85000000	9144.62588024	9570.62202258	11232.09232222	11057.49416495	12764.76159271	13427.19757502	13645.18939730	183.48013161	-69.70309967	-221.64224527
34.86000000	9144.24104968	9565.91324800	11232.09946604	11052.76548334	12772.32411689	13451.74814425	13651.19836547	183.09747731	-69.53031349	-209.84094413
34.87000000	9144.71192945	9562.89403977	11232.09516975	11043.81297560	12780.45686204	13475.33159752	13656.74180878	182.74278873	-69.35062624	-195.72467926
34.88000000	9146.26117907	9562.18013344	11232.07605639	11030.56722852	12788.61500321	13497.03091009	13662.28183073	182.37711395	-69.17029953	-181.02784203
34.89000000	9149.11145805	9564.38726456	11232.03874899	11012.95882885	12796.25371543	13515.92905721	13668.28053483	181.96150101	-68.99559495	-167.48482383
34.90000000	9153.48258415	9570.12360623	11231.97996861	10990.92598195	12802.83208947	13531.11779904	13675.19598205	181.45728258	-68.83273742	-156.81898617
34.91000000	9159.37450474	9579.41222331	11231.90401956	10964.99634676	12808.11217717	13542.36858679	13683.17346203	180.84780993	-68.68511327	-149.90030559
34.92000000	9166.41447167	9591.28438153	11231.82806030	10936.69674692	12812.36957046	13550.60499516	13691.82809522	180.15375742	-68.55129727	-146.15221185
34.93000000	9174.19363556	9604.67527574	11231.77049441	10907.65079046	12815.92960545	13556.86219965	13700.72364711	179.39941475	-68.42939809	-144.85801455
34.94000000	9182.30314699	9618.52010074	11231.74972546	10879.48208540	12819.11761828	13562.17537574	13709.42388318	178.60907161	-68.31752440	-145.30102330
34.95000000	9190.33415659	9631.75405138	11231.78415704	10853.81423977	12822.25894508	13567.57969893	13717.49256891	177.80701767	-68.21378488	-146.76454769
34.96000000	9197.87781494	9643.31232247	11231.89219273	10832.27086159	12825.67892198	13574.11034470	13724.49346978	177.01754264	-68.11628822	-148.53189732
34.97000000	9204.53062207	9652.14599382	11232.09151552	10816.44575374	12829.69769101	13582.78402347	13729.99742586	176.26462888	-68.02315992	-149.89528226
34.98000000	9210.09703680	9657.82367331	11232.37179576	10806.77404376	12834.43347351	13593.89961616	13733.85030231	175.56031216	-67.93318002	-150.49291879
34.99000000	9214.65166381	9660.71615967	11232.68631438	10802.18569897	12839.74218873	13606.82351779	13736.25523160	174.90110915	-67.84597880	-150.41249748
35	9218.28716204	9661.24786338	11232.98592035	10801.51009430	12845.46222582	13620.85980374	13737.43922295	174.28249937	-67.76124335	-149.77174799
35.01000000	9221.09619045	9659.84319492	11233.22146260	10803.57660467	12851.43197393	13635.31254943	13737.62928561	173.69996234	-67.67866078	-148.68840001
35.02000000	9223.17140801	9656.92656479	11233.34379012	10807.21460501	12857.48982223	13649.48583026	13737.05242881	173.14897755	-67.59791819	-147.28018322
35.03000000	9224.60547369	9652.92238347	11233.30375186	10811.25347024	12863.47415986	13662.68372162	13735.93566178	172.62502454	-67.51870269	-145.66482730
35.04000000	9225.49104643	9648.25506146	11233.05219677	10814.52257529	12869.22337598	13674.21029892	13734.50599376	172.12358280	-67.44070136	-143.96006194
35.05000000	9225.92078520	9643.34900922	11232.53997382	10815.85129509	12874.57585973	13683.36963757	13732.99043399	171.64013186	-67.36360132	-142.28361681
35.06000000	9225.98700870	9638.62629400	11231.71896544	10814.07722234	12879.37099295	13689.47190486	13731.61492590	171.17013384	-67.28705822	-140.75247607
35.07000000	9225.75570953	9634.32768404	11230.62101390	10808.67376168	12883.52496036	13692.29860022	13730.52295139	170.70770581	-67.20829432	-139.42594241
35.08000000	9225.24825572	9630.38663325	11229.41349896	10800.19206321	12887.08413295	13692.43016381	13729.71821437	170.24468487	-67.12040719	-138.26554445
